<svg xmlns="http://www.w3.org/2000/svg" width="170.667" height="170.667" preserveAspectRatio="xMidYMid meet" version="1.0" viewBox="0 0 128 128"><g fill="#000" stroke="none"><path d="M906 690 c-60 -18 -106 -83 -106 -149 0 -87 32 -128 144 -182 43 -21 87 -46 97 -55 44 -40 6 -94 -66 -94 -37 0 -52 6 -82 34 l-38 34 -47 -27 -47 -27 18 -27 c76 -116 298 -130 374 -23 17 24 22 45 22 97 0 92 -25 123 -153 186 -85 42 -97 51 -100 76 -5 38 14 57 55 57 24 0 41 -7 56 -24 l21 -24 43 29 c24 17 43 34 43 38 0 16 -51 62 -85 77 -38 15 -104 17 -149 4z" transform="translate(0.000000,128.000000) scale(0.100000,-0.100000)"/><path d="M578 467 c-3 -247 -6 -257 -63 -257 -25 0 -40 8 -57 29 l-23 29 -47 -27 c-27 -14 -48 -31 -48 -37 0 -21 74 -84 109 -94 91 -25 188 5 226 70 18 32 20 56 23 273 l3 237 -60 0 -60 0 -3 -223z" transform="translate(0.000000,128.000000) scale(0.100000,-0.100000)"/></g></svg>