<?xml version="1.0" standalone="no"?>
<!DOCTYPE svg PUBLIC "-//W3C//DTD SVG 20010904//EN"
 "http://www.w3.org/TR/2001/REC-SVG-20010904/DTD/svg10.dtd">
<svg version="1.0" xmlns="http://www.w3.org/2000/svg"
 width="128.000000pt" height="171.000000pt" viewBox="0 0 128.000000 171.000000"
 preserveAspectRatio="xMidYMid meet">

<g transform="translate(0.000000,171.000000) scale(0.100000,-0.100000)"
fill="#000000" stroke="none">
<path d="M376 1584 c-184 -28 -328 -89 -360 -153 -12 -22 -16 -61 -16 -155 l0
-125 31 -35 c93 -107 434 -174 748 -147 230 19 407 74 470 147 l31 35 0 128
c0 117 -2 131 -23 162 -44 65 -205 125 -397 149 -116 14 -376 11 -484 -6z
m489 -105 c135 -23 214 -63 199 -102 -9 -25 -85 -57 -176 -74 -114 -22 -395
-21 -502 0 -88 19 -161 50 -170 74 -34 88 363 150 649 102z"/>
<path d="M10 990 c-6 -10 -10 -75 -10 -144 0 -119 1 -126 26 -155 32 -39 147
-94 239 -115 130 -30 209 -38 375 -38 166 0 245 8 375 38 92 21 207 76 239
115 25 29 26 36 26 155 0 69 -4 134 -10 144 -9 18 -13 17 -61 -15 -54 -37
-159 -74 -274 -96 -96 -19 -494 -19 -590 0 -115 22 -220 59 -274 96 -48 32
-52 33 -61 15z"/>
<path d="M6 564 c-3 -9 -6 -71 -6 -138 0 -151 11 -174 109 -222 138 -70 329
-99 591 -91 214 7 357 34 469 89 100 50 111 72 111 227 0 69 -4 132 -9 140 -7
12 -18 8 -57 -17 -113 -76 -270 -111 -519 -119 -139 -4 -206 -2 -295 11 -135
20 -274 64 -335 106 -51 35 -51 35 -59 14z"/>
</g>
</svg>
