<?xml version="1.0" standalone="no"?>
<!DOCTYPE svg PUBLIC "-//W3C//DTD SVG 20010904//EN"
 "http://www.w3.org/TR/2001/REC-SVG-20010904/DTD/svg10.dtd">
<svg version="1.0" xmlns="http://www.w3.org/2000/svg"
 width="128.000000pt" height="144.000000pt" viewBox="0 0 128.000000 144.000000"
 preserveAspectRatio="xMidYMid meet">

<g transform="translate(0.000000,144.000000) scale(0.100000,-0.100000)"
fill="#000000" stroke="none">
<path d="M1135 1003 c-60 -36 -236 -137 -390 -225 -154 -89 -281 -162 -283
-164 -11 -8 35 -55 77 -78 88 -47 193 -29 262 47 l28 30 83 -47 c46 -27 87
-52 91 -56 12 -11 -52 -90 -108 -132 -81 -61 -144 -82 -255 -82 -74 0 -107 5
-150 22 -69 27 -145 85 -185 139 -19 26 -36 40 -45 37 -8 -3 -66 -35 -128 -71
l-114 -66 24 -22 c12 -12 142 -92 288 -176 234 -135 270 -153 310 -153 40 -1
75 17 320 159 208 121 280 168 297 194 23 34 23 37 23 357 0 177 -3 329 -6
338 -3 9 -11 16 -18 15 -6 0 -60 -30 -121 -66z m-115 -232 c0 -13 8 -21 23
-23 16 -2 23 -11 25 -30 3 -24 0 -28 -22 -28 -19 0 -26 -5 -26 -20 0 -15 -7
-20 -25 -20 -18 0 -25 5 -25 19 0 13 -8 21 -22 23 -17 2 -23 10 -23 28 0 18 6
26 23 28 14 2 22 10 22 23 0 14 7 19 25 19 18 0 25 -5 25 -19z m180 0 c0 -13
8 -21 23 -23 16 -2 22 -10 22 -28 0 -18 -6 -26 -22 -28 -15 -2 -23 -10 -23
-23 0 -14 -7 -19 -25 -19 -18 0 -25 5 -25 20 0 15 -7 20 -26 20 -22 0 -25 4
-22 28 2 19 9 28 26 30 14 2 22 10 22 23 0 14 7 19 25 19 18 0 25 -5 25 -19z"/>
</g>
</svg>
