<svg xmlns="http://www.w3.org/2000/svg" width="266.667" height="293.333" preserveAspectRatio="xMidYMid meet" version="1.0" viewBox="0 0 200 220"><g fill="#000" stroke="none"><path d="M1357 1759 c-64 -51 -117 -95 -117 -98 0 -3 28 -22 61 -40 33 -19 82 -56 108 -81 54 -52 113 -129 106 -140 -2 -4 -61 -39 -130 -79 l-126 -73 -40 45 c-56 64 -126 97 -207 97 -84 0 -129 -14 -188 -59 -102 -78 -141 -220 -94 -345 40 -105 135 -174 253 -183 89 -7 162 23 231 92 l52 53 30 -18 c16 -9 73 -43 127 -74 l97 -57 -32 -46 c-138 -192 -370 -285 -599 -239 -165 34 -303 126 -398 268 -39 58 -81 167 -81 209 0 10 -2 19 -5 19 -3 0 -69 -49 -145 -110 -77 -60 -142 -110 -145 -110 -3 0 -6 111 -8 248 -2 245 -2 245 -4 -68 -2 -288 -1 -318 16 -355 10 -22 29 -49 42 -61 13 -11 194 -119 402 -239 403 -232 427 -242 497 -213 73 31 784 449 799 470 38 53 39 74 40 526 1 479 0 488 -53 537 -22 21 -320 196 -357 210 -9 3 -58 -28 -132 -86z m77 -530 c-7 -40 -6 -41 22 -37 26 3 29 7 32 41 3 32 7 37 28 37 21 0 24 -4 24 -40 0 -33 3 -40 20 -40 15 0 20 -7 20 -25 0 -20 -5 -25 -24 -25 -19 0 -25 -6 -28 -30 -4 -24 -1 -30 16 -32 13 -2 22 -12 24 -25 3 -19 -1 -23 -22 -23 -22 0 -26 -5 -32 -45 -5 -40 -9 -45 -31 -45 -25 0 -25 2 -20 45 7 44 6 45 -23 45 -27 0 -29 -3 -32 -42 -3 -38 -6 -43 -28 -43 -23 0 -24 3 -22 43 3 37 1 42 -17 42 -16 0 -21 6 -21 25 0 20 5 25 25 25 21 0 25 5 25 29 0 20 -6 30 -20 34 -30 8 -27 47 4 47 20 0 24 6 30 40 5 34 10 40 31 40 24 0 25 -2 19 -41z" transform="translate(0.000000,220.000000) scale(0.100000,-0.100000)"/><path d="M1420 1109 c0 -27 3 -30 28 -27 21 2 28 9 30 31 3 24 0 27 -27 27 -28 0 -31 -3 -31 -31z" transform="translate(0.000000,220.000000) scale(0.100000,-0.100000)"/></g></svg>