<?xml version="1.0" standalone="no"?>
<!DOCTYPE svg PUBLIC "-//W3C//DTD SVG 20010904//EN"
 "http://www.w3.org/TR/2001/REC-SVG-20010904/DTD/svg10.dtd">
<svg version="1.0" xmlns="http://www.w3.org/2000/svg"
 width="340.000000pt" height="480.000000pt" viewBox="0 0 340.000000 480.000000"
 preserveAspectRatio="xMidYMid meet">

<g transform="translate(0.000000,480.000000) scale(0.100000,-0.100000)"
fill="#000000" stroke="none">
<path d="M800 4475 l0 -325 255 0 255 0 0 110 0 110 -145 0 -145 0 0 105 0
105 145 0 145 0 0 110 0 110 -255 0 -255 0 0 -325z"/>
<path d="M1420 4590 l0 -210 150 0 c143 0 150 -1 150 -20 0 -19 -7 -20 -150
-20 l-150 0 0 -100 0 -100 255 0 255 0 0 220 0 220 -150 0 c-127 0 -150 2
-150 15 0 13 23 15 150 15 l150 0 0 95 0 95 -255 0 -255 0 0 -210z"/>
<path d="M2040 4590 l0 -209 147 -3 c131 -3 148 -5 151 -20 3 -17 -9 -18 -147
-18 l-151 0 0 -100 0 -100 255 0 255 0 0 220 0 220 -150 0 c-127 0 -150 2
-150 15 0 13 23 15 150 15 l150 0 0 95 0 95 -255 0 -255 0 0 -210z"/>
<path d="M6 3813 c3 -21 72 -798 155 -1728 82 -929 153 -1693 157 -1696 4 -3
316 -92 693 -197 l687 -190 693 192 c598 166 694 195 696 212 7 52 303 3395
303 3418 l0 26 -1694 0 -1694 0 4 -37z m2754 -700 c0 -50 -187 -2133 -191
-2137 -2 -2 -199 -57 -437 -123 l-433 -119 -437 121 -437 122 -27 284 c-15
156 -27 308 -27 337 l-1 52 213 -2 212 -3 14 -165 c8 -91 15 -166 16 -168 2
-2 108 -32 237 -67 l233 -63 233 63 c129 35 235 65 237 67 2 2 13 109 24 238
12 129 23 252 26 273 l5 37 -738 0 -738 0 -17 203 c-10 111 -17 208 -17 215 0
9 161 12 773 12 l773 0 17 203 c10 111 17 208 17 215 0 9 -169 12 -809 12
l-809 0 -6 48 c-3 26 -10 101 -16 167 -6 66 -13 141 -16 168 l-6 47 1066 0
1066 0 0 -37z"/>
</g>
</svg>
