<?xml version="1.0" standalone="no"?>
<!DOCTYPE svg PUBLIC "-//W3C//DTD SVG 20010904//EN"
 "http://www.w3.org/TR/2001/REC-SVG-20010904/DTD/svg10.dtd">
<svg version="1.0" xmlns="http://www.w3.org/2000/svg"
 width="480.000000pt" height="480.000000pt" viewBox="0 0 480.000000 480.000000"
 preserveAspectRatio="xMidYMid meet">

<g transform="translate(0.000000,480.000000) scale(0.100000,-0.100000)"
fill="#000000" stroke="none">
<path d="M1020 4475 l0 -325 105 0 105 0 0 110 0 110 100 0 100 0 0 -110 0
-111 108 3 107 3 3 323 2 322 -110 0 -110 0 0 -105 0 -105 -100 0 -100 0 0
105 0 105 -105 0 -105 0 0 -325z"/>
<path d="M1742 4693 l3 -108 93 -3 92 -3 0 -215 0 -215 108 3 107 3 3 212 2
212 93 3 92 3 3 108 3 107 -301 0 -301 0 3 -107z"/>
<path d="M2432 4478 l3 -323 103 -3 102 -3 0 156 c0 85 3 155 8 155 4 0 36
-45 71 -100 34 -55 67 -103 72 -106 5 -3 42 45 82 107 l72 111 3 -161 2 -161
105 0 105 0 0 325 0 325 -113 0 -113 0 -64 -110 c-36 -60 -68 -110 -71 -110
-4 0 -37 50 -74 110 l-67 110 -114 0 -114 0 2 -322z"/>
<path d="M3270 4475 l0 -325 260 0 260 0 0 110 0 110 -155 0 -155 0 0 215 0
215 -105 0 -105 0 0 -325z"/>
<path d="M706 3818 c2 -18 72 -796 155 -1728 83 -932 153 -1698 157 -1701 10
-9 1364 -383 1383 -381 15 0 1158 315 1322 363 37 11 67 25 67 31 0 20 299
3382 304 3416 l5 32 -1699 0 -1699 0 5 -32z m2764 -675 c0 -5 -9 -100 -20
-213 -11 -113 -20 -206 -20 -207 0 -2 -367 -3 -815 -3 l-816 0 6 -47 c6 -49
35 -362 35 -375 0 -5 349 -8 775 -8 l775 0 -1 -27 c0 -16 -26 -311 -57 -658
l-57 -630 -437 -122 -437 -121 -433 120 c-238 66 -436 123 -439 127 -4 3 -19
141 -33 306 -15 165 -29 315 -32 333 l-5 32 221 0 c200 0 220 -2 220 -17 0
-53 24 -300 30 -312 5 -9 101 -39 237 -76 l229 -61 233 63 c129 34 235 64 237
65 1 2 12 107 23 233 11 127 23 249 26 273 l5 42 -738 0 -738 0 -53 593 c-29
325 -56 616 -58 645 l-6 52 1072 0 c589 0 1071 -3 1071 -7z"/>
</g>
</svg>
