<?xml version="1.0" standalone="no"?>
<!DOCTYPE svg PUBLIC "-//W3C//DTD SVG 20010904//EN"
 "http://www.w3.org/TR/2001/REC-SVG-20010904/DTD/svg10.dtd">
<svg version="1.0" xmlns="http://www.w3.org/2000/svg"
 width="480.000000pt" height="480.000000pt" viewBox="0 0 480.000000 480.000000"
 preserveAspectRatio="xMidYMid meet">

<g transform="translate(0.000000,480.000000) scale(0.100000,-0.100000)"
fill="#000000" stroke="none">
<path d="M3365 4736 c-28 -12 -222 -188 -1513 -1364 -287 -261 -447 -400 -455
-396 -6 4 -74 54 -149 111 l-137 103 -551 0 c-540 0 -550 0 -550 -20 0 -53 44
-100 402 -427 203 -185 367 -340 366 -344 -2 -5 -167 -158 -368 -341 -200
-183 -373 -349 -384 -368 -26 -44 -27 -131 -3 -177 20 -39 303 -300 353 -327
50 -26 132 -25 179 2 19 12 147 106 283 210 136 103 320 243 410 311 l162 123
233 -213 c1221 -1115 1684 -1537 1706 -1551 65 -44 185 -9 228 67 l23 40 0
566 0 566 -363 274 c-909 687 -1075 814 -1071 821 5 7 1064 813 1337 1017 l97
73 0 547 c0 365 -4 559 -11 586 -26 92 -139 148 -224 111z"/>
</g>
</svg>
