<svg xmlns="http://www.w3.org/2000/svg" width="644" height="644" preserveAspectRatio="xMidYMid meet" version="1.0" viewBox="0 0 483 483"><g fill="#000" stroke="none"><path d="M3458 4806 c-26 -7 -65 -24 -86 -39 -22 -14 -401 -426 -843 -916 -442 -489 -808 -890 -812 -890 -8 -1 -739 595 -941 767 -166 140 -175 141 -434 36 -234 -95 -274 -117 -309 -167 l-28 -40 0 -1142 0 -1142 28 -40 c35 -50 60 -64 295 -162 267 -112 280 -112 448 31 232 198 936 769 943 766 5 -2 372 -406 818 -898 558 -617 822 -902 850 -918 65 -35 142 -46 211 -28 47 12 726 332 1027 484 92 46 135 85 173 157 l27 50 3 1675 c2 1196 0 1688 -8 1720 -16 62 -65 136 -114 169 -61 41 -1043 512 -1101 528 -59 16 -85 16 -147 -1z m170 -2901 l-3 -516 -619 508 c-341 279 -620 512 -620 518 0 5 279 238 620 518 l619 507 3 -509 c1 -280 1 -742 0 -1026z m-2696 839 c160 -177 290 -326 289 -330 -3 -10 -597 -671 -612 -680 -5 -3 -9 275 -9 682 l0 687 21 -19 c12 -10 152 -164 311 -340z" transform="translate(0.000000,483.000000) scale(0.100000,-0.100000)"/></g></svg>